<mxfile host="65bd71144e">
    <diagram id="WbWPC61dwpus7OWspNYm" name="PÃ¡gina-1">
        <mxGraphModel dx="698" dy="1666" grid="1" gridSize="10" guides="1" tooltips="1" connect="1" arrows="1" fold="1" page="1" pageScale="1" pageWidth="827" pageHeight="1169" math="0" shadow="0">
            <root>
                <mxCell id="0"/>
                <mxCell id="1" parent="0"/>
                <mxCell id="8" style="edgeStyle=none;html=1;exitX=1;exitY=0.5;exitDx=0;exitDy=0;entryX=0;entryY=0.5;entryDx=0;entryDy=0;" edge="1" parent="1" source="2" target="3">
                    <mxGeometry relative="1" as="geometry"/>
                </mxCell>
                <mxCell id="2" value="" style="shape=process;whiteSpace=wrap;html=1;backgroundOutline=1;size=0.25;" vertex="1" parent="1">
                    <mxGeometry x="40" y="46" width="120" height="60" as="geometry"/>
                </mxCell>
                <mxCell id="9" style="edgeStyle=none;html=1;exitX=1;exitY=0.5;exitDx=0;exitDy=0;entryX=0;entryY=0.5;entryDx=0;entryDy=0;" edge="1" parent="1" source="3" target="4">
                    <mxGeometry relative="1" as="geometry"/>
                </mxCell>
                <mxCell id="3" value="" style="shape=process;whiteSpace=wrap;html=1;backgroundOutline=1;size=0.25;" vertex="1" parent="1">
                    <mxGeometry x="200" y="46" width="120" height="60" as="geometry"/>
                </mxCell>
                <mxCell id="10" style="edgeStyle=none;html=1;exitX=1;exitY=0.5;exitDx=0;exitDy=0;entryX=0;entryY=0.5;entryDx=0;entryDy=0;" edge="1" parent="1" source="4" target="5">
                    <mxGeometry relative="1" as="geometry"/>
                </mxCell>
                <mxCell id="4" value="" style="shape=process;whiteSpace=wrap;html=1;backgroundOutline=1;size=0.25;" vertex="1" parent="1">
                    <mxGeometry x="360" y="46" width="120" height="60" as="geometry"/>
                </mxCell>
                <mxCell id="11" style="edgeStyle=none;html=1;exitX=1;exitY=0.5;exitDx=0;exitDy=0;entryX=0;entryY=0.5;entryDx=0;entryDy=0;" edge="1" parent="1" source="5" target="6">
                    <mxGeometry relative="1" as="geometry"/>
                </mxCell>
                <mxCell id="5" value="" style="shape=process;whiteSpace=wrap;html=1;backgroundOutline=1;size=0.25;" vertex="1" parent="1">
                    <mxGeometry x="520" y="46" width="120" height="60" as="geometry"/>
                </mxCell>
                <mxCell id="12" style="edgeStyle=none;html=1;exitX=1;exitY=0.5;exitDx=0;exitDy=0;entryX=0;entryY=0.5;entryDx=0;entryDy=0;" edge="1" parent="1" source="6" target="7">
                    <mxGeometry relative="1" as="geometry"/>
                </mxCell>
                <mxCell id="6" value="" style="shape=process;whiteSpace=wrap;html=1;backgroundOutline=1;size=0.25;" vertex="1" parent="1">
                    <mxGeometry x="680" y="46" width="120" height="60" as="geometry"/>
                </mxCell>
                <mxCell id="7" value="" style="shape=process;whiteSpace=wrap;html=1;backgroundOutline=1;size=0.25;" vertex="1" parent="1">
                    <mxGeometry x="840" y="46" width="120" height="60" as="geometry"/>
                </mxCell>
                <mxCell id="13" value="value: 1" style="text;html=1;strokeColor=none;fillColor=none;align=center;verticalAlign=middle;whiteSpace=wrap;rounded=0;" vertex="1" parent="1">
                    <mxGeometry x="70" y="56" width="60" height="30" as="geometry"/>
                </mxCell>
                <mxCell id="14" value="value: 6" style="text;html=1;strokeColor=none;fillColor=none;align=center;verticalAlign=middle;whiteSpace=wrap;rounded=0;" vertex="1" parent="1">
                    <mxGeometry x="870" y="61" width="60" height="30" as="geometry"/>
                </mxCell>
                <mxCell id="15" value="value: 5" style="text;html=1;strokeColor=none;fillColor=none;align=center;verticalAlign=middle;whiteSpace=wrap;rounded=0;" vertex="1" parent="1">
                    <mxGeometry x="710" y="61" width="60" height="30" as="geometry"/>
                </mxCell>
                <mxCell id="16" value="value: 4" style="text;html=1;strokeColor=none;fillColor=none;align=center;verticalAlign=middle;whiteSpace=wrap;rounded=0;" vertex="1" parent="1">
                    <mxGeometry x="550" y="61" width="60" height="30" as="geometry"/>
                </mxCell>
                <mxCell id="17" value="value: 3" style="text;html=1;strokeColor=none;fillColor=none;align=center;verticalAlign=middle;whiteSpace=wrap;rounded=0;" vertex="1" parent="1">
                    <mxGeometry x="390" y="61" width="60" height="30" as="geometry"/>
                </mxCell>
                <mxCell id="18" value="value: 2" style="text;html=1;strokeColor=none;fillColor=none;align=center;verticalAlign=middle;whiteSpace=wrap;rounded=0;" vertex="1" parent="1">
                    <mxGeometry x="230" y="61" width="60" height="30" as="geometry"/>
                </mxCell>
                <mxCell id="36" style="edgeStyle=none;html=1;exitX=1;exitY=0.25;exitDx=0;exitDy=0;" edge="1" parent="1" source="20">
                    <mxGeometry relative="1" as="geometry">
                        <mxPoint x="200" y="369" as="targetPoint"/>
                    </mxGeometry>
                </mxCell>
                <mxCell id="20" value="" style="shape=process;whiteSpace=wrap;html=1;backgroundOutline=1;size=0.25;" vertex="1" parent="1">
                    <mxGeometry x="40" y="354" width="120" height="60" as="geometry"/>
                </mxCell>
                <mxCell id="37" style="edgeStyle=none;html=1;exitX=0;exitY=0.75;exitDx=0;exitDy=0;entryX=1;entryY=0.75;entryDx=0;entryDy=0;" edge="1" parent="1" source="22" target="20">
                    <mxGeometry relative="1" as="geometry"/>
                </mxCell>
                <mxCell id="38" style="edgeStyle=none;html=1;exitX=1;exitY=0.25;exitDx=0;exitDy=0;" edge="1" parent="1" source="22">
                    <mxGeometry relative="1" as="geometry">
                        <mxPoint x="360" y="369" as="targetPoint"/>
                    </mxGeometry>
                </mxCell>
                <mxCell id="22" value="" style="shape=process;whiteSpace=wrap;html=1;backgroundOutline=1;size=0.25;" vertex="1" parent="1">
                    <mxGeometry x="204" y="354" width="120" height="60" as="geometry"/>
                </mxCell>
                <mxCell id="39" style="edgeStyle=none;html=1;exitX=0;exitY=0.75;exitDx=0;exitDy=0;entryX=1;entryY=0.75;entryDx=0;entryDy=0;" edge="1" parent="1" source="24" target="22">
                    <mxGeometry relative="1" as="geometry"/>
                </mxCell>
                <mxCell id="40" style="edgeStyle=none;html=1;exitX=1;exitY=0.25;exitDx=0;exitDy=0;entryX=0;entryY=0.25;entryDx=0;entryDy=0;" edge="1" parent="1" source="24" target="26">
                    <mxGeometry relative="1" as="geometry"/>
                </mxCell>
                <mxCell id="24" value="" style="shape=process;whiteSpace=wrap;html=1;backgroundOutline=1;size=0.25;" vertex="1" parent="1">
                    <mxGeometry x="364" y="354" width="120" height="60" as="geometry"/>
                </mxCell>
                <mxCell id="41" style="edgeStyle=none;html=1;exitX=0;exitY=0.75;exitDx=0;exitDy=0;entryX=1;entryY=0.75;entryDx=0;entryDy=0;" edge="1" parent="1" source="26" target="24">
                    <mxGeometry relative="1" as="geometry"/>
                </mxCell>
                <mxCell id="42" style="edgeStyle=none;html=1;exitX=1;exitY=0.25;exitDx=0;exitDy=0;" edge="1" parent="1" source="26">
                    <mxGeometry relative="1" as="geometry">
                        <mxPoint x="680" y="369" as="targetPoint"/>
                    </mxGeometry>
                </mxCell>
                <mxCell id="26" value="" style="shape=process;whiteSpace=wrap;html=1;backgroundOutline=1;size=0.25;" vertex="1" parent="1">
                    <mxGeometry x="524" y="354" width="120" height="60" as="geometry"/>
                </mxCell>
                <mxCell id="43" style="edgeStyle=none;html=1;exitX=0;exitY=0.75;exitDx=0;exitDy=0;entryX=1;entryY=0.75;entryDx=0;entryDy=0;" edge="1" parent="1" source="28" target="26">
                    <mxGeometry relative="1" as="geometry"/>
                </mxCell>
                <mxCell id="44" style="edgeStyle=none;html=1;exitX=1;exitY=0.25;exitDx=0;exitDy=0;entryX=0;entryY=0.25;entryDx=0;entryDy=0;" edge="1" parent="1" source="28" target="29">
                    <mxGeometry relative="1" as="geometry"/>
                </mxCell>
                <mxCell id="28" value="" style="shape=process;whiteSpace=wrap;html=1;backgroundOutline=1;size=0.25;" vertex="1" parent="1">
                    <mxGeometry x="684" y="354" width="120" height="60" as="geometry"/>
                </mxCell>
                <mxCell id="45" style="edgeStyle=none;html=1;exitX=0;exitY=0.75;exitDx=0;exitDy=0;entryX=1;entryY=0.75;entryDx=0;entryDy=0;" edge="1" parent="1" source="29" target="28">
                    <mxGeometry relative="1" as="geometry"/>
                </mxCell>
                <mxCell id="29" value="" style="shape=process;whiteSpace=wrap;html=1;backgroundOutline=1;size=0.25;" vertex="1" parent="1">
                    <mxGeometry x="844" y="354" width="120" height="60" as="geometry"/>
                </mxCell>
                <mxCell id="30" value="value: 1" style="text;html=1;strokeColor=none;fillColor=none;align=center;verticalAlign=middle;whiteSpace=wrap;rounded=0;" vertex="1" parent="1">
                    <mxGeometry x="74" y="364" width="60" height="30" as="geometry"/>
                </mxCell>
                <mxCell id="31" value="value: 6" style="text;html=1;strokeColor=none;fillColor=none;align=center;verticalAlign=middle;whiteSpace=wrap;rounded=0;" vertex="1" parent="1">
                    <mxGeometry x="874" y="369" width="60" height="30" as="geometry"/>
                </mxCell>
                <mxCell id="32" value="value: 5" style="text;html=1;strokeColor=none;fillColor=none;align=center;verticalAlign=middle;whiteSpace=wrap;rounded=0;" vertex="1" parent="1">
                    <mxGeometry x="714" y="369" width="60" height="30" as="geometry"/>
                </mxCell>
                <mxCell id="33" value="value: 4" style="text;html=1;strokeColor=none;fillColor=none;align=center;verticalAlign=middle;whiteSpace=wrap;rounded=0;" vertex="1" parent="1">
                    <mxGeometry x="554" y="369" width="60" height="30" as="geometry"/>
                </mxCell>
                <mxCell id="34" value="value: 3" style="text;html=1;strokeColor=none;fillColor=none;align=center;verticalAlign=middle;whiteSpace=wrap;rounded=0;" vertex="1" parent="1">
                    <mxGeometry x="394" y="369" width="60" height="30" as="geometry"/>
                </mxCell>
                <mxCell id="35" value="value: 2" style="text;html=1;strokeColor=none;fillColor=none;align=center;verticalAlign=middle;whiteSpace=wrap;rounded=0;" vertex="1" parent="1">
                    <mxGeometry x="234" y="369" width="60" height="30" as="geometry"/>
                </mxCell>
                <mxCell id="46" style="edgeStyle=none;html=1;exitX=1;exitY=0.5;exitDx=0;exitDy=0;entryX=0;entryY=0.5;entryDx=0;entryDy=0;" edge="1" parent="1" source="47" target="49">
                    <mxGeometry relative="1" as="geometry"/>
                </mxCell>
                <mxCell id="47" value="" style="shape=process;whiteSpace=wrap;html=1;backgroundOutline=1;size=0.25;" vertex="1" parent="1">
                    <mxGeometry x="40" y="672" width="120" height="60" as="geometry"/>
                </mxCell>
                <mxCell id="48" style="edgeStyle=none;html=1;exitX=1;exitY=0.5;exitDx=0;exitDy=0;entryX=0;entryY=0.5;entryDx=0;entryDy=0;" edge="1" parent="1" source="49" target="51">
                    <mxGeometry relative="1" as="geometry"/>
                </mxCell>
                <mxCell id="49" value="" style="shape=process;whiteSpace=wrap;html=1;backgroundOutline=1;size=0.25;" vertex="1" parent="1">
                    <mxGeometry x="200" y="672" width="120" height="60" as="geometry"/>
                </mxCell>
                <mxCell id="50" style="edgeStyle=none;html=1;exitX=1;exitY=0.5;exitDx=0;exitDy=0;entryX=0;entryY=0.5;entryDx=0;entryDy=0;" edge="1" parent="1" source="51" target="53">
                    <mxGeometry relative="1" as="geometry"/>
                </mxCell>
                <mxCell id="51" value="" style="shape=process;whiteSpace=wrap;html=1;backgroundOutline=1;size=0.25;" vertex="1" parent="1">
                    <mxGeometry x="360" y="672" width="120" height="60" as="geometry"/>
                </mxCell>
                <mxCell id="52" style="edgeStyle=none;html=1;exitX=1;exitY=0.5;exitDx=0;exitDy=0;entryX=0;entryY=0.5;entryDx=0;entryDy=0;" edge="1" parent="1" source="53" target="55">
                    <mxGeometry relative="1" as="geometry"/>
                </mxCell>
                <mxCell id="53" value="" style="shape=process;whiteSpace=wrap;html=1;backgroundOutline=1;size=0.25;" vertex="1" parent="1">
                    <mxGeometry x="520" y="672" width="120" height="60" as="geometry"/>
                </mxCell>
                <mxCell id="54" style="edgeStyle=none;html=1;exitX=1;exitY=0.5;exitDx=0;exitDy=0;entryX=0;entryY=0.5;entryDx=0;entryDy=0;" edge="1" parent="1" source="55" target="56">
                    <mxGeometry relative="1" as="geometry"/>
                </mxCell>
                <mxCell id="55" value="" style="shape=process;whiteSpace=wrap;html=1;backgroundOutline=1;size=0.25;" vertex="1" parent="1">
                    <mxGeometry x="680" y="672" width="120" height="60" as="geometry"/>
                </mxCell>
                <mxCell id="56" value="" style="shape=process;whiteSpace=wrap;html=1;backgroundOutline=1;size=0.25;" vertex="1" parent="1">
                    <mxGeometry x="840" y="672" width="120" height="60" as="geometry"/>
                </mxCell>
                <mxCell id="57" value="value: 1" style="text;html=1;strokeColor=none;fillColor=none;align=center;verticalAlign=middle;whiteSpace=wrap;rounded=0;" vertex="1" parent="1">
                    <mxGeometry x="70" y="682" width="60" height="30" as="geometry"/>
                </mxCell>
                <mxCell id="58" value="value: 6" style="text;html=1;strokeColor=none;fillColor=none;align=center;verticalAlign=middle;whiteSpace=wrap;rounded=0;" vertex="1" parent="1">
                    <mxGeometry x="870" y="687" width="60" height="30" as="geometry"/>
                </mxCell>
                <mxCell id="59" value="value: 5" style="text;html=1;strokeColor=none;fillColor=none;align=center;verticalAlign=middle;whiteSpace=wrap;rounded=0;" vertex="1" parent="1">
                    <mxGeometry x="710" y="687" width="60" height="30" as="geometry"/>
                </mxCell>
                <mxCell id="60" value="value: 4" style="text;html=1;strokeColor=none;fillColor=none;align=center;verticalAlign=middle;whiteSpace=wrap;rounded=0;" vertex="1" parent="1">
                    <mxGeometry x="550" y="687" width="60" height="30" as="geometry"/>
                </mxCell>
                <mxCell id="61" value="value: 3" style="text;html=1;strokeColor=none;fillColor=none;align=center;verticalAlign=middle;whiteSpace=wrap;rounded=0;" vertex="1" parent="1">
                    <mxGeometry x="390" y="687" width="60" height="30" as="geometry"/>
                </mxCell>
                <mxCell id="62" value="value: 2" style="text;html=1;strokeColor=none;fillColor=none;align=center;verticalAlign=middle;whiteSpace=wrap;rounded=0;" vertex="1" parent="1">
                    <mxGeometry x="230" y="687" width="60" height="30" as="geometry"/>
                </mxCell>
                <mxCell id="64" value="" style="curved=1;endArrow=classic;html=1;entryX=0;entryY=0.5;entryDx=0;entryDy=0;" edge="1" parent="1" target="47">
                    <mxGeometry width="50" height="50" relative="1" as="geometry">
                        <mxPoint x="960" y="702" as="sourcePoint"/>
                        <mxPoint x="1010" y="652" as="targetPoint"/>
                        <Array as="points">
                            <mxPoint x="970" y="702"/>
                            <mxPoint x="1000" y="722"/>
                            <mxPoint x="1000" y="772"/>
                            <mxPoint x="960" y="792"/>
                            <mxPoint x="510" y="782"/>
                            <mxPoint x="40" y="782"/>
                            <mxPoint y="762"/>
                            <mxPoint y="722"/>
                        </Array>
                    </mxGeometry>
                </mxCell>
                <mxCell id="66" value="&lt;h1&gt;Lista Enlazada Simple&lt;/h1&gt;" style="text;html=1;strokeColor=none;fillColor=none;spacing=5;spacingTop=-20;whiteSpace=wrap;overflow=hidden;rounded=0;" vertex="1" parent="1">
                    <mxGeometry x="40" y="-114" width="320" height="120" as="geometry"/>
                </mxCell>
                <mxCell id="67" value="&lt;h1&gt;Lista Doblemente Enlazada&lt;/h1&gt;" style="text;html=1;strokeColor=none;fillColor=none;spacing=5;spacingTop=-20;whiteSpace=wrap;overflow=hidden;rounded=0;" vertex="1" parent="1">
                    <mxGeometry x="40" y="200" width="320" height="120" as="geometry"/>
                </mxCell>
                <mxCell id="68" value="&lt;h1&gt;Lista Doblemente Enlazada&lt;/h1&gt;" style="text;html=1;strokeColor=none;fillColor=none;spacing=5;spacingTop=-20;whiteSpace=wrap;overflow=hidden;rounded=0;" vertex="1" parent="1">
                    <mxGeometry x="40" y="517" width="320" height="120" as="geometry"/>
                </mxCell>
            </root>
        </mxGraphModel>
    </diagram>
</mxfile>